<svg xmlns="http://www.w3.org/2000/svg" xmlns:xlink="http://www.w3.org/1999/xlink" width="39" height="42" viewBox="0 0 39 42"><defs><path id="tkrka" d="M623.16 660.76l-.08 11.24c-.01.92-.76 1.65-1.67 1.65h-.01c-.92 0-1.66-.76-1.65-1.68l.08-11.24a15.4 15.4 0 0 0-4.44-10.98 15.34 15.34 0 0 0-10.9-4.62h-.11a15.49 15.49 0 0 0-15.46 15.36l-.08 11.25c-.01.91-.75 1.65-1.67 1.65h-.01c-.92 0-1.66-.76-1.65-1.68l.08-11.24a18.82 18.82 0 0 1 18.93-18.68c5.02.04 9.72 2.04 13.24 5.62a18.71 18.71 0 0 1 5.4 13.35zm-6.41 2.81c.98 1.38 1 2.76 1 2.91l-.08 10.52c-.02 1.9-1.57 5.5-7.34 5.5h-.11c-.8 0-1.45-.67-1.45-1.47l.15-18.7c0-.8.66-1.46 1.45-1.46h.02c3.68.03 5.5 1.49 6.36 2.7zm-1.92 2.9c0-.37-.22-2.1-3.01-2.56l-.12 15.58c2.8-.43 3.04-2.15 3.05-2.53zm-15.11-5.25c.27.28.42.65.42 1.04l-.15 18.7c0 .8-.66 1.45-1.45 1.45h-.02c-3.68-.03-5.49-1.48-6.36-2.7a5.28 5.28 0 0 1-1-2.9l.08-10.53c.02-1.9 1.57-5.5 7.34-5.5h.1c.4 0 .77.16 1.04.44zm-2.51 2.58c-2.8.42-3.04 2.15-3.05 2.53l-.08 10.5c0 .36.22 2.08 3.01 2.54z"/></defs><g><g transform="translate(-585 -641)"><use fill="#50c3af" xlink:href="#tkrka"/></g></g></svg>