<svg xmlns="http://www.w3.org/2000/svg" xmlns:xlink="http://www.w3.org/1999/xlink" width="38" height="35" viewBox="0 0 38 35"><defs><path id="edjma" d="M413.88 664.25c-7.75 8.64-14.6 14.77-14.67 14.83a1.67 1.67 0 0 1-2.22 0c-.07-.06-6.92-6.19-14.67-14.83-3.2-3.56-4.02-8.16-2.18-12.28 1.78-4 5.57-6.57 9.64-6.57 4.13 0 6.78 1.83 8.32 3.8 1.54-1.97 4.19-3.8 8.32-3.8 4.07 0 7.86 2.58 9.64 6.57 1.84 4.12 1.03 8.72-2.18 12.28zm-.87-10.92c-1.23-2.75-3.88-4.6-6.6-4.6-5.54 0-6.65 4.26-6.69 4.44a1.67 1.67 0 0 1-3.24 0c-.12-.45-1.32-4.44-6.7-4.44-2.71 0-5.36 1.85-6.6 4.6-1.3 2.93-.71 6.1 1.62 8.7a215.02 215.02 0 0 0 13.3 13.55c2.22-2.06 7.5-7.09 13.3-13.55 2.33-2.6 2.92-5.77 1.61-8.7zm-1.4 3.56a1.67 1.67 0 0 1-3.33.22c-.2-2.93-2.24-3.25-2.33-3.26a1.67 1.67 0 1 1 .45-3.3c1.67.23 4.91 1.84 5.21 6.34zm-2.5 2.98a1.68 1.68 0 0 1 0 2.36c-.31.3-.74.49-1.18.49a1.7 1.7 0 0 1-1.18-.49 1.68 1.68 0 0 1 1.18-2.84c.44 0 .87.17 1.18.48z"/></defs><g><g transform="translate(-379 -645)"><use fill="#50c3af" xlink:href="#edjma"/></g></g></svg>