<svg xmlns="http://www.w3.org/2000/svg" xmlns:xlink="http://www.w3.org/1999/xlink" width="43" height="31" viewBox="0 0 43 31"><defs><path id="e7p3a" d="M178.92 661.23a9.64 9.64 0 0 1 9.63-9.63 9.64 9.64 0 0 1 0 19.27 9.64 9.64 0 0 1-9.63-9.64zm3.33 0a6.3 6.3 0 1 0 12.61 0 6.3 6.3 0 0 0-12.6 0zm22.54 19c0 .92-.74 1.67-1.66 1.67h-29.16c-.92 0-1.67-.75-1.67-1.67 0-4.86 9.06-8.12 11.84-9a1.66 1.66 0 0 1 1.58.31l2.83 2.4 2.83-2.4a1.66 1.66 0 0 1 1.58-.31c2.77.88 11.83 4.14 11.83 9zm-4.48-1.67c-1.58-1.34-4.57-2.84-7.5-3.86l-3.19 2.7c-.62.52-1.53.52-2.15 0l-3.19-2.7c-2.92 1.02-5.91 2.52-7.5 3.86zm13.89-1.08c0 .7-.56 1.25-1.25 1.25h-6.2a1.25 1.25 0 0 1 0-2.5h4.44c-.89-1.19-2.7-2.36-3.73-2.87a1.25 1.25 0 0 1 1.12-2.24c.57.28 5.62 2.89 5.62 6.36zm-7.99-12.33a3.83 3.83 0 0 0-5.32-3.53 1.25 1.25 0 1 1-.97-2.3 6.34 6.34 0 1 1-2.01 10.31 1.25 1.25 0 0 1 1.77-1.77 3.83 3.83 0 0 0 6.53-2.71z"/></defs><g><g transform="translate(-172 -651)"><use fill="#50c3af" xlink:href="#e7p3a"/></g></g></svg>