<svg xmlns="http://www.w3.org/2000/svg" height="640pt" version="1.1" viewBox="0 0 640 640" width="640pt">
<g id="surface1">
<path d="M 373.335938 213.335938 L 327.007812 213.335938 C 324.179688 213.335938 321.464844 214.457031 319.46875 216.460938 L 237.792969 298.132812 C 235.789062 300.132812 234.667969 302.847656 234.664062 305.671875 L 234.664062 330.667969 C 234.664062 336.558594 239.445312 341.332031 245.332031 341.332031 L 373.335938 341.332031 C 379.222656 341.332031 384 336.558594 384 330.667969 L 384 224 C 384 218.109375 379.222656 213.335938 373.335938 213.335938 Z M 362.664062 320 L 256 320 L 256 310.09375 L 331.425781 234.667969 L 362.664062 234.667969 Z M 362.664062 320 " style=" stroke:none;fill-rule:nonzero;fill:rgb(0%,0%,0%);fill-opacity:1;" />
<path d="M 373.335938 522.664062 C 349.769531 522.664062 330.667969 541.765625 330.667969 565.332031 C 330.667969 588.898438 349.769531 608 373.335938 608 C 396.898438 608 416 588.898438 416 565.332031 C 416 541.765625 396.898438 522.664062 373.335938 522.664062 Z M 373.335938 586.664062 C 361.554688 586.664062 352 577.113281 352 565.332031 C 352 553.550781 361.554688 544 373.335938 544 C 385.117188 544 394.667969 553.550781 394.667969 565.332031 C 394.667969 577.113281 385.117188 586.664062 373.335938 586.664062 Z M 373.335938 586.664062 " style=" stroke:none;fill-rule:nonzero;fill:rgb(0%,0%,0%);fill-opacity:1;" />
<path d="M 501.332031 522.664062 C 477.769531 522.664062 458.667969 541.765625 458.667969 565.332031 C 458.667969 588.898438 477.769531 608 501.332031 608 C 524.898438 608 544 588.898438 544 565.332031 C 544 541.765625 524.898438 522.664062 501.332031 522.664062 Z M 501.332031 586.664062 C 489.550781 586.664062 480 577.113281 480 565.332031 C 480 553.550781 489.550781 544 501.332031 544 C 513.117188 544 522.664062 553.550781 522.664062 565.332031 C 522.664062 577.113281 513.117188 586.664062 501.332031 586.664062 Z M 501.332031 586.664062 " style=" stroke:none;fill-rule:nonzero;fill:rgb(0%,0%,0%);fill-opacity:1;" />
<path d="M 245.332031 522.664062 C 221.765625 522.664062 202.664062 541.765625 202.664062 565.332031 C 202.664062 588.898438 221.765625 608 245.332031 608 C 268.898438 608 288 588.898438 288 565.332031 C 288 541.765625 268.898438 522.664062 245.332031 522.664062 Z M 245.332031 586.664062 C 233.550781 586.664062 224 577.113281 224 565.332031 C 224 553.550781 233.550781 544 245.332031 544 C 257.113281 544 266.664062 553.550781 266.664062 565.332031 C 266.664062 577.113281 257.113281 586.664062 245.332031 586.664062 Z M 245.332031 586.664062 " style=" stroke:none;fill-rule:nonzero;fill:rgb(0%,0%,0%);fill-opacity:1;" />
<path d="M 629.332031 448 C 635.226562 448 640 443.222656 640 437.335938 L 640 330.667969 C 640 324.773438 635.226562 320 629.332031 320 L 426.664062 320 L 426.664062 181.332031 C 426.664062 175.445312 421.890625 170.664062 416 170.664062 L 309.332031 170.664062 C 306.503906 170.667969 303.792969 171.792969 301.792969 173.792969 L 277.335938 198.25 L 82.207031 3.125 C 80.210938 1.128906 77.496094 0 74.667969 0 L 10.667969 0 C 4.773438 0 0 4.773438 0 10.667969 L 0 373.335938 C 0 376.898438 1.78125 380.230469 4.746094 382.207031 L 100.746094 446.210938 C 105.648438 449.476562 112.269531 448.15625 115.542969 443.25 C 116.21875 442.234375 116.71875 441.113281 117.011719 439.925781 L 149.015625 311.921875 L 159.683594 269.257812 C 161.074219 263.535156 157.558594 257.765625 151.835938 256.375 C 146.167969 254.996094 140.445312 258.429688 138.988281 264.070312 L 130.347656 298.667969 L 55.09375 298.667969 L 82.007812 123.550781 L 217.023438 258.558594 L 195.125 280.460938 C 193.125 282.457031 192 285.171875 191.996094 288 L 191.996094 426.664062 L 181.332031 426.664062 C 175.4375 426.664062 170.664062 431.441406 170.664062 437.335938 L 170.664062 491.519531 C 129.898438 497.730469 101.878906 535.8125 108.089844 576.578125 C 113.613281 612.835938 144.652344 639.71875 181.332031 640 L 565.332031 640 C 606.566406 639.683594 639.742188 605.996094 639.421875 564.761719 C 639.140625 528.082031 612.261719 497.039062 576 491.519531 L 576 448 Z M 618.667969 341.332031 L 618.667969 426.664062 L 426.664062 426.664062 L 426.664062 341.332031 Z M 99.992188 420.0625 L 21.332031 367.625 L 21.332031 320 L 125.003906 320 Z M 82.207031 93.578125 C 78.066406 89.390625 71.3125 89.351562 67.125 93.496094 C 65.484375 95.117188 64.414062 97.222656 64.078125 99.496094 L 33.515625 298.667969 L 21.332031 298.667969 L 21.332031 21.332031 L 70.25 21.332031 L 262.25 213.335938 L 232.105469 243.476562 Z M 213.335938 292.417969 L 239.648438 266.097656 L 284.875 220.875 L 313.75 192 L 405.332031 192 L 405.332031 426.664062 L 213.335938 426.664062 Z M 618.667969 565.332031 C 618.632812 594.773438 594.773438 618.632812 565.332031 618.667969 L 181.332031 618.667969 C 151.878906 618.667969 128 594.789062 128 565.332031 C 128 535.878906 151.878906 512 181.332031 512 L 565.332031 512 C 594.773438 512.035156 618.632812 535.894531 618.667969 565.332031 Z M 554.667969 490.664062 L 192 490.664062 L 192 448 L 554.667969 448 Z M 554.667969 490.664062 " style=" stroke:none;fill-rule:nonzero;fill:rgb(0%,0%,0%);fill-opacity:1;" />
</g>
</svg>